<svg width="367" height="321" viewBox="0 0 367 321" fill="none" xmlns="http://www.w3.org/2000/svg">
<path fill-rule="evenodd" clip-rule="evenodd" d="M135.897 0.49279C130.137 24.7746 107.969 119.134 108 119.235C108.042 119.374 217.123 150.101 217.216 150C217.226 149.989 218.417 144.963 220.304 136.979C220.647 137.588 221.299 138 222.048 138H231.301C232.406 138 233.301 137.104 233.301 136V110.98C233.311 110.004 234.103 109.214 235.082 109.2H256C257.105 109.2 258 108.304 258 107.2V97.3997C258 96.2952 257.105 95.3997 256 95.3997H235.108V95.3995C234.11 95.3994 233.301 94.5937 233.301 93.5998H233.301V81.8894C239.609 55.128 245.363 30.6796 245.349 30.6676C245.299 30.6243 136.235 0 136.132 0C136.067 0 135.961 0.221821 135.897 0.49279ZM233.301 81.8894V68.5997C233.301 67.4951 232.406 66.5997 231.301 66.5997H222.048C220.944 66.5997 220.048 67.4951 220.048 68.5997V93.6216C220.036 94.6055 219.232 95.3995 218.241 95.3995V95.3997H197.349C196.245 95.3997 195.349 96.2952 195.349 97.3997V107.2C195.349 108.304 196.245 109.2 197.349 109.2H218.267C219.253 109.214 220.048 110.014 220.048 111H220.048V136C220.048 136.355 220.141 136.69 220.304 136.979C223.451 123.662 228.534 102.115 233.301 81.8894ZM179.293 63.3432C184.97 64.9351 189.703 66.2804 189.811 66.3328C189.983 66.4163 189.669 67.8594 187.276 77.9922C184.786 88.5356 184.525 89.5528 184.312 89.5158C184.184 89.4933 179.408 88.1656 173.7 86.5652C166.311 84.4936 163.321 83.6036 163.321 83.4759C163.321 83.3188 168.539 61.0393 168.676 60.6132C168.704 60.5229 168.783 60.4489 168.851 60.4489C168.918 60.4489 173.617 61.7513 179.293 63.3432ZM159.475 198.47L135.327 192L122.645 239.331L146.793 245.801L130.229 307.62L178.525 320.561L195.089 258.742L219.237 265.212L231.92 217.882L207.771 211.411L159.475 198.47ZM243 259.267V315.518H267.764C281.385 315.518 292.531 315.315 292.533 315.067C292.535 314.819 292.553 305.485 292.573 294.325L292.609 274.034H294.866C297.727 274.034 302.901 276.577 304.933 278.98C309.1 283.908 312.371 293.909 313.641 305.598C314 308.905 314.437 312.49 314.613 313.564L314.932 315.518H340.575H366.218V314.094C366.218 311.95 364.51 302.617 363.124 297.181C360.358 286.341 354.294 273.749 347.961 265.701L344.953 261.877L348.047 258.94C354.517 252.797 357.158 246.368 357.158 236.758C357.158 220.882 347.834 209.665 330.564 204.764C326.198 203.525 324.706 203.476 284.526 203.25L243 203.016V259.267ZM0 259.304V315.518H39.8882C64.1132 315.518 82.0444 315.266 85.5513 314.877C101.469 313.11 112.418 305.145 115.659 292.973C116.779 288.771 116.916 280.536 115.927 276.883C114.296 270.85 109.479 264.864 103.105 260.949L99.5535 258.767L101.269 257.542C110.05 251.274 113.654 244.607 113.642 234.654C113.62 216.615 101.605 206.004 78.6082 203.713C75.0579 203.36 56.7092 203.09 36.1765 203.09H0V259.304ZM58.1926 226.585C59.4702 226.938 61.4459 228.086 62.5839 229.137C66.4314 232.688 66.7394 240.329 63.1897 244.142C61.4736 245.984 56.4839 247.581 52.4388 247.581H49.5288V236.759V225.937L52.6998 225.94C54.4442 225.942 56.9158 226.232 58.1926 226.585ZM301.98 227.783C304.951 229.214 306.798 231.824 307.373 235.405C308.576 242.896 304.396 247.254 295.549 247.734L292.831 247.881L292.647 238.03C292.545 232.612 292.605 227.809 292.779 227.358C293.28 226.057 298.941 226.319 301.98 227.783ZM60.8497 268.1C64.0533 269.634 65.6268 271.797 66.5051 275.873C67.0221 278.272 67.0155 279.831 66.4785 282.218C65.2324 287.76 61.5154 290.102 53.4548 290.423L49.8308 290.567L49.6659 279.163C49.5753 272.891 49.6489 267.375 49.8296 266.907C50.2928 265.705 57.4727 266.482 60.8497 268.1ZM185.256 181.04L186.144 182H192.12L188.304 177.992C188.784 177.208 189.152 176.32 189.408 175.328C189.68 174.336 189.824 173.232 189.84 172.016H186.168C186.168 172.624 186.12 173.192 186.024 173.72C185.928 174.232 185.792 174.712 185.616 175.16L183.648 173.048C184.32 172.488 184.856 171.864 185.256 171.176C185.656 170.472 185.856 169.696 185.856 168.848C185.856 167.872 185.608 167.088 185.112 166.496C184.616 165.888 183.984 165.448 183.216 165.176C182.464 164.888 181.672 164.744 180.84 164.744C179.896 164.744 179.04 164.92 178.272 165.272C177.52 165.608 176.928 166.104 176.496 166.76C176.064 167.416 175.848 168.208 175.848 169.136C175.848 169.728 175.952 170.272 176.16 170.768C176.384 171.248 176.744 171.792 177.24 172.4C176.6 172.928 176.04 173.552 175.56 174.272C175.08 174.992 174.84 175.84 174.84 176.816C174.84 177.696 175.064 178.552 175.512 179.384C175.96 180.216 176.632 180.904 177.528 181.448C178.424 181.976 179.528 182.24 180.84 182.24C181.592 182.24 182.344 182.144 183.096 181.952C183.848 181.744 184.568 181.44 185.256 181.04ZM180.144 169.496C180.032 169.336 179.976 169.152 179.976 168.944C179.976 168.688 180.048 168.48 180.192 168.32C180.352 168.144 180.568 168.056 180.84 168.056C181.096 168.056 181.296 168.128 181.44 168.272C181.6 168.416 181.68 168.624 181.68 168.896C181.68 169.152 181.608 169.368 181.464 169.544C181.32 169.704 181.088 169.896 180.768 170.12C180.48 169.848 180.272 169.64 180.144 169.496ZM179.4 177.608C179.272 177.304 179.208 177.04 179.208 176.816C179.208 176.56 179.28 176.328 179.424 176.12C179.568 175.896 179.776 175.68 180.048 175.472L182.76 178.376C182.28 178.584 181.8 178.688 181.32 178.688C180.808 178.688 180.392 178.584 180.072 178.376C179.768 178.152 179.544 177.896 179.4 177.608Z" fill="#E22319"/>
</svg>
