<svg width="40" height="40" viewBox="0 0 40 40" fill="none" xmlns="http://www.w3.org/2000/svg">
<rect width="40" height="40" rx="10" fill="#5865F2"/>
<path d="M30.5497 10.8323C28.7014 9.98423 26.7193 9.35938 24.6469 9.0015C24.6091 8.99459 24.5714 9.01186 24.552 9.04638C24.2971 9.49976 24.0147 10.0912 23.817 10.5561C21.588 10.2224 19.3704 10.2224 17.1871 10.5561C16.9894 10.0809 16.6968 9.49976 16.4407 9.04638C16.4213 9.01301 16.3836 8.99575 16.3458 9.0015C14.2746 9.35823 12.2925 9.98308 10.443 10.8323C10.427 10.8392 10.4132 10.8508 10.4041 10.8657C6.64451 16.4825 5.6146 21.9612 6.11984 27.372C6.12213 27.3984 6.13699 27.4238 6.15756 27.4399C8.63804 29.2615 11.0408 30.3673 13.399 31.1004C13.4367 31.1119 13.4767 31.0981 13.5007 31.067C14.0585 30.3052 14.5558 29.502 14.9821 28.6573C15.0073 28.6079 14.9833 28.5492 14.9318 28.5296C14.1431 28.2304 13.3921 27.8656 12.6697 27.4514C12.6125 27.418 12.608 27.3363 12.6605 27.2971C12.8125 27.1832 12.9646 27.0647 13.1098 26.945C13.136 26.9232 13.1726 26.9186 13.2035 26.9324C17.9496 29.0992 23.0877 29.0992 27.7777 26.9324C27.8086 26.9174 27.8452 26.922 27.8726 26.9439C28.0178 27.0636 28.1698 27.1832 28.323 27.2971C28.3756 27.3363 28.3722 27.418 28.315 27.4514C27.5926 27.8737 26.8416 28.2304 26.0517 28.5285C26.0003 28.548 25.9774 28.6079 26.0026 28.6573C26.4381 29.5008 26.9353 30.304 27.4828 31.0658C27.5057 31.0981 27.5468 31.1119 27.5846 31.1004C29.9542 30.3673 32.3569 29.2615 34.8374 27.4399C34.8591 27.4238 34.8728 27.3996 34.8751 27.3731C35.4798 21.1177 33.8623 15.6839 30.5874 10.8668C30.5794 10.8508 30.5657 10.8392 30.5497 10.8323ZM15.6909 24.0774C14.262 24.0774 13.0846 22.7655 13.0846 21.1545C13.0846 19.5434 14.2391 18.2316 15.6909 18.2316C17.154 18.2316 18.3199 19.555 18.2971 21.1545C18.2971 22.7655 17.1425 24.0774 15.6909 24.0774ZM25.327 24.0774C23.8981 24.0774 22.7208 22.7655 22.7208 21.1545C22.7208 19.5434 23.8753 18.2316 25.327 18.2316C26.7901 18.2316 27.9561 19.555 27.9332 21.1545C27.9332 22.7655 26.7901 24.0774 25.327 24.0774Z" fill="white"/>
</svg>
