<svg width="25" height="25" viewBox="0 0 25 25" fill="none" xmlns="http://www.w3.org/2000/svg">
<path fill-rule="evenodd" clip-rule="evenodd" d="M9.41176 15.8235C12.9529 15.8235 15.8235 12.9529 15.8235 9.41176C15.8235 5.87064 12.9529 3 9.41176 3C5.87064 3 3 5.87064 3 9.41176C3 12.9529 5.87064 15.8235 9.41176 15.8235ZM9.41176 18.8235C11.2882 18.8235 13.0365 18.2744 14.5045 17.328L21.5276 24.3511C22.1134 24.9369 23.0631 24.9369 23.6489 24.3511C24.2347 23.7653 24.2347 22.8156 23.6489 22.2298L16.7387 15.3196C18.0427 13.7044 18.8235 11.6493 18.8235 9.41176C18.8235 4.21379 14.6097 0 9.41176 0C4.21379 0 0 4.21379 0 9.41176C0 14.6097 4.21379 18.8235 9.41176 18.8235ZM8.57009 6.66629C9.2205 6.60125 10.1788 6.68885 10.9312 7.10115C11.6072 7.47158 12.1765 8.12483 12.1765 9.43596C12.1765 9.98824 12.6242 10.436 13.1765 10.436C13.7288 10.436 14.1765 9.98824 14.1765 9.43596C14.1765 7.35885 13.1772 6.05132 11.8923 5.34724C10.6839 4.68502 9.2893 4.58439 8.37108 4.67621C7.82154 4.73117 7.42059 5.22121 7.47555 5.77076C7.5305 6.3203 8.02055 6.72124 8.57009 6.66629Z" fill="white"/>
</svg>
