<svg width="40" height="40" viewBox="0 0 40 40" fill="none" xmlns="http://www.w3.org/2000/svg">
<rect width="40" height="40" rx="10" fill="white"/>
<path fill-rule="evenodd" clip-rule="evenodd" d="M12.8297 8.07813C11.8325 11.9277 7.99463 26.887 8.00001 26.9031C8.00734 26.9251 26.8921 31.7964 26.9081 31.7804C26.9168 31.7718 31.7841 12.8661 31.7788 12.8619C31.7701 12.8551 12.8882 8 12.8703 8C12.8591 8 12.8408 8.03517 12.8297 8.07813ZM20.3428 18.0422C21.3255 18.2946 22.1448 18.5078 22.1636 18.5161C22.1933 18.5294 22.139 18.7582 21.7248 20.3646C21.2937 22.0361 21.2484 22.1974 21.2116 22.1915C21.1894 22.1879 20.3626 21.9774 19.3743 21.7237C18.0951 21.3953 17.5774 21.2542 17.5774 21.2339C17.5774 21.209 18.4809 17.6769 18.5045 17.6094C18.5095 17.5951 18.5232 17.5833 18.5348 17.5833C18.5464 17.5833 19.36 17.7898 20.3428 18.0422Z" fill="black"/>
</svg>
