<?xml version="1.0" encoding="utf-8"?>
<!-- Generator: Adobe Illustrator 25.2.3, SVG Export Plug-In . SVG Version: 6.00 Build 0)  -->
<svg version="1.1" id="Layer_1" xmlns="http://www.w3.org/2000/svg" xmlns:xlink="http://www.w3.org/1999/xlink" x="0px" y="0px"
	 viewBox="0 0 1664.5 1002.5" style="enable-background:new 0 0 1664.5 1002.5;" xml:space="preserve">
<style type="text/css">
	.st0{fill-rule:evenodd;clip-rule:evenodd;fill:#FFFFFF;}
	.st1{fill-rule:evenodd;clip-rule:evenodd;fill:#272B30;}
	.st2{fill-rule:evenodd;clip-rule:evenodd;fill:#0084DD;}
	.st3{enable-background:new    ;}
	.st4{fill:#FFFFFF;}
</style>
<polygon class="st0" points="180.7,160.7 180.7,835.4 818.2,848.3 805.2,160.7 "/>
<path class="st0" d="M747.3,938.2c14.8-9.2,30.3-19.5,46.2-30.9c14.5-10.4,28-20.8,40.5-31L578.9,604.9
	c-79.6-84.1-77.6-81.9-77.6-81.9c-6.8,0.9-12.7,1.9-17.5,2.7c-17.6,3.1-22,4.8-24.8,6.2c-5.1,2.2-9.8,5.4-13.8,9.4
	c0,0-12.9,13.6-11.3,40.7c0.1,2.4,0.3,4.7,0.8,7c0.3,1,0.9,3.2,1.5,6.5c0,0.2,0.1,0.4,0.1,0.6c3.4,10.8,9,20.7,16.4,29.1
	C550.9,729.7,649.1,833.9,747.3,938.2z"/>
<path class="st0" d="M97.8,203.9c-10.3,14.5-21.1,31-31.6,49.4c-10.1,17.6-19.2,35.7-27.4,54.3c170.4,0.1,340.9,0.3,511.3,0.4V203.9
	"/>
<path class="st0" d="M762.6,407.4c1-17.7,2.2-41.3-7.3-69.9c-9.2-27.7-24.2-45.5-39.4-63.9c-16-19.4-30.2-36.5-55.6-50.7
	c-8.9-5-27.5-10.2-64.7-20.5c-17.8-5-36.9-9.7-44-1.1c-0.6,0.8-1.1,1.6-1.5,2.5v312.5l28.7,88.5c11.6-0.4,93.1-4.9,145.9-74.1
	C758.5,486.6,761,435.8,762.6,407.4z"/>
<polygon class="st0" points="550.2,516.5 501.3,523.1 578.9,604.9 "/>
<g>
	<path class="st1" d="M747.2,938.2c-75.1,42.4-159.8,64.5-246,64.4C224.4,1002.5,0,778.1,0,501.3C0,434.8,13.1,369,38.8,307.6H536
		c12.1-0.1,24.2,0.9,36.2,3c23.7,4.3,46.6,14,62.2,33c30.9,37.6,27.2,105.3-8.2,138.4c-12.6,11.7-28.2,20-44.5,25.9
		c-37.5,13.6-67.5,11.7-104.5,18.7c-14.9,2.7-27.3,8.4-35,19.6c-9.9,14.2-10.7,36.3-5,53.1c4.1,12,12.3,23,21,32.3L747.2,938.2z"/>
	<path class="st2" d="M501.3,0c276.9,0,501.3,224.4,501.3,501.3c0,149.2-65.2,283.2-168.6,375L578.8,604.9
		c139.4-22.2,183.8-119,183.8-197.5c0-131.9-99.1-203.5-224.1-203.5H97.7C188.9,80.2,335.8,0,501.3,0z"/>
	<path class="st0" d="M275.3,476.7V738l0,0c1,28.6,24.9,51,53.5,50c27.2-0.9,49.1-22.8,50-50l0,0V413l0,0c-1-28.6-24.9-51-53.5-50
		c-27.2,0.9-49.1,22.8-50,50L275.3,476.7z"/>
</g>
<g class="st3">
	<path class="st4" d="M917.8,733.8c-26.1,25.3-58.5,38-97.2,38c-38.7,0-71-12.6-96.8-37.7c-25.8-25.1-38.7-55.8-38.7-92.1V641
		c0-36.6,13-67.5,39.1-92.8c26.1-25.3,58.5-38,97.2-38c38.7,0,71,12.6,96.8,37.7c25.8,25.2,38.7,55.8,38.7,92.1v0.9
		C956.9,677.6,943.9,708.5,917.8,733.8z M821.5,710.4c19.7,0,35.5-6.6,47.3-19.7c11.9-13.1,17.8-29.4,17.8-48.7V641
		c0-19.1-6.2-35.4-18.5-49c-12.3-13.6-28.2-20.4-47.6-20.4c-19.7,0-35.5,6.6-47.3,19.7c-11.9,13.1-17.8,29.4-17.8,48.7v0.9
		c0,19.1,6.2,35.4,18.5,49C786.3,703.6,802.1,710.4,821.5,710.4z"/>
	<path class="st4" d="M980.8,766.2v-328h134c38.7,0,69.4,10.4,91.8,31.2c22.5,20.8,33.7,48.2,33.7,82.2v0.9
		c0,36.6-12.5,64.9-37.5,85.1c-25,20.1-56.7,30.2-95.1,30.2H1053v98.4H980.8z M1053,603.6h57.2c17.5,0,31.4-4.7,41.7-14.1
		s15.5-21.2,15.5-35.6v-0.9c0-15.9-5.2-28.2-15.5-36.8c-10.3-8.6-24.7-12.9-43.1-12.9H1053V603.6z"/>
</g>
<g class="st3">
	<path class="st4" d="M1251.2,766.2V515h71.2v50.6c16.2-38.4,43-56.9,80.1-55.3v74.5h-3.7c-24.4,0-43.2,7.4-56.5,22.3
		c-13.3,14.8-19.9,36.9-19.9,66.3v92.8H1251.2z"/>
</g>
<g class="st3">
	<path class="st4" d="M1625.4,733.8c-26.1,25.3-58.5,38-97.2,38c-38.7,0-71-12.6-96.8-37.7c-25.8-25.1-38.7-55.8-38.7-92.1V641
		c0-36.6,13-67.5,39.1-92.8c26.1-25.3,58.5-38,97.2-38c38.7,0,71,12.6,96.8,37.7c25.8,25.2,38.7,55.8,38.7,92.1v0.9
		C1664.5,677.6,1651.4,708.5,1625.4,733.8z M1529.1,710.4c19.7,0,35.5-6.6,47.3-19.7c11.9-13.1,17.8-29.4,17.8-48.7V641
		c0-19.1-6.2-35.4-18.5-49c-12.3-13.6-28.2-20.4-47.6-20.4c-19.7,0-35.5,6.6-47.3,19.7c-11.9,13.1-17.8,29.4-17.8,48.7v0.9
		c0,19.1,6.2,35.4,18.5,49C1493.8,703.6,1509.7,710.4,1529.1,710.4z"/>
</g>
</svg>
