<svg width="299" height="97" viewBox="0 0 299 97" fill="none" xmlns="http://www.w3.org/2000/svg">
<mask id="path-1-inside-1" fill="white">
<path fill-rule="evenodd" clip-rule="evenodd" d="M152.137 1.91594C151.307 -0.638647 147.693 -0.638647 146.863 1.91594L137.672 30.2028C137.301 31.3452 136.237 32.1187 135.035 32.1187H105.293C102.607 32.1187 101.49 35.5559 103.663 37.1347L109.34 41.2594H94.0711C93.0337 41.2594 92.1143 40.5914 91.7937 39.6047L83.856 15.1752C83.1392 12.9689 80.018 12.9689 79.3011 15.1752L71.3635 39.6047C71.0429 40.5914 70.1234 41.2594 69.086 41.2594H43.3993C41.0795 41.2594 40.115 44.2279 41.9917 45.5914L62.7727 60.6897C63.612 61.2995 63.9632 62.3804 63.6426 63.367L55.705 87.7965C54.9881 90.0028 57.5133 91.8374 59.39 90.4739L80.171 75.3756C81.0103 74.7658 82.1468 74.7658 82.9861 75.3756L103.767 90.4739C105.644 91.8374 108.169 90.0028 107.452 87.7965L99.5145 63.367C99.1939 62.3804 99.5451 61.2995 100.384 60.6897L118.234 47.7212L127.725 54.6169C128.697 55.323 129.104 56.5746 128.732 57.717L119.541 86.0038C118.711 88.5584 121.635 90.6827 123.808 89.1039L147.871 71.6217C148.842 70.9156 150.158 70.9156 151.13 71.6217L175.192 89.1039C177.365 90.6827 180.289 88.5584 179.459 86.0038L170.268 57.717C169.897 56.5746 170.304 55.323 171.276 54.6169L180.345 48.0277L197.773 60.6897C198.612 61.2995 198.963 62.3804 198.643 63.367L190.705 87.7965C189.988 90.0028 192.513 91.8374 194.39 90.4739L215.171 75.3756C216.01 74.7658 217.147 74.7658 217.986 75.3756L238.767 90.4739C240.644 91.8374 243.169 90.0028 242.452 87.7965L234.515 63.367C234.194 62.3804 234.545 61.2995 235.384 60.6897L256.165 45.5914C258.042 44.2279 257.078 41.2594 254.758 41.2594H229.071C228.034 41.2594 227.114 40.5914 226.794 39.6047L218.856 15.1752C218.139 12.9689 215.018 12.9689 214.301 15.1752L206.363 39.6047C206.043 40.5914 205.123 41.2594 204.086 41.2594H189.661L195.338 37.1347C197.511 35.5559 196.394 32.1187 193.708 32.1187H163.965C162.764 32.1187 161.7 31.3452 161.328 30.2028L152.137 1.91594ZM31.5781 40.7402C31.0499 39.1145 28.7501 39.1145 28.2219 40.7402L22.3731 58.7409C22.1369 59.4679 21.4594 59.9601 20.6949 59.9601H1.76788C0.0585698 59.9601 -0.652126 62.1474 0.730733 63.1521L16.0431 74.2772C16.6615 74.7265 16.9203 75.5229 16.684 76.2499L10.8353 94.2506C10.3071 95.8763 12.1677 97.2281 13.5505 96.2234L28.8629 85.0984C29.4813 84.649 30.3187 84.649 30.9371 85.0984L46.2495 96.2234C47.6323 97.2281 49.4929 95.8763 48.9647 94.2506L43.116 76.2499C42.8797 75.5229 43.1385 74.7265 43.7569 74.2772L59.0693 63.1521C60.4521 62.1474 59.7414 59.9601 58.0321 59.9601H39.1051C38.3406 59.9601 37.6631 59.4679 37.4269 58.7409L31.5781 40.7402ZM267.422 40.7402C267.95 39.1145 270.25 39.1145 270.778 40.7402L276.627 58.7409C276.863 59.4679 277.54 59.9601 278.305 59.9601H297.232C298.941 59.9601 299.652 62.1474 298.269 63.1521L282.957 74.2772C282.338 74.7265 282.08 75.5229 282.316 76.2499L288.165 94.2506C288.693 95.8763 286.832 97.2281 285.449 96.2234L270.137 85.0984C269.519 84.649 268.681 84.649 268.063 85.0984L252.75 96.2234C251.368 97.2281 249.507 95.8763 250.035 94.2506L255.884 76.2499C256.12 75.5229 255.861 74.7265 255.243 74.2772L239.931 63.1521C238.548 62.1474 239.258 59.9601 240.968 59.9601H259.895C260.659 59.9601 261.337 59.4679 261.573 58.7409L267.422 40.7402Z"/>
</mask>
<path fill-rule="evenodd" clip-rule="evenodd" d="M152.137 1.91594C151.307 -0.638647 147.693 -0.638647 146.863 1.91594L137.672 30.2028C137.301 31.3452 136.237 32.1187 135.035 32.1187H105.293C102.607 32.1187 101.49 35.5559 103.663 37.1347L109.34 41.2594H94.0711C93.0337 41.2594 92.1143 40.5914 91.7937 39.6047L83.856 15.1752C83.1392 12.9689 80.018 12.9689 79.3011 15.1752L71.3635 39.6047C71.0429 40.5914 70.1234 41.2594 69.086 41.2594H43.3993C41.0795 41.2594 40.115 44.2279 41.9917 45.5914L62.7727 60.6897C63.612 61.2995 63.9632 62.3804 63.6426 63.367L55.705 87.7965C54.9881 90.0028 57.5133 91.8374 59.39 90.4739L80.171 75.3756C81.0103 74.7658 82.1468 74.7658 82.9861 75.3756L103.767 90.4739C105.644 91.8374 108.169 90.0028 107.452 87.7965L99.5145 63.367C99.1939 62.3804 99.5451 61.2995 100.384 60.6897L118.234 47.7212L127.725 54.6169C128.697 55.323 129.104 56.5746 128.732 57.717L119.541 86.0038C118.711 88.5584 121.635 90.6827 123.808 89.1039L147.871 71.6217C148.842 70.9156 150.158 70.9156 151.13 71.6217L175.192 89.1039C177.365 90.6827 180.289 88.5584 179.459 86.0038L170.268 57.717C169.897 56.5746 170.304 55.323 171.276 54.6169L180.345 48.0277L197.773 60.6897C198.612 61.2995 198.963 62.3804 198.643 63.367L190.705 87.7965C189.988 90.0028 192.513 91.8374 194.39 90.4739L215.171 75.3756C216.01 74.7658 217.147 74.7658 217.986 75.3756L238.767 90.4739C240.644 91.8374 243.169 90.0028 242.452 87.7965L234.515 63.367C234.194 62.3804 234.545 61.2995 235.384 60.6897L256.165 45.5914C258.042 44.2279 257.078 41.2594 254.758 41.2594H229.071C228.034 41.2594 227.114 40.5914 226.794 39.6047L218.856 15.1752C218.139 12.9689 215.018 12.9689 214.301 15.1752L206.363 39.6047C206.043 40.5914 205.123 41.2594 204.086 41.2594H189.661L195.338 37.1347C197.511 35.5559 196.394 32.1187 193.708 32.1187H163.965C162.764 32.1187 161.7 31.3452 161.328 30.2028L152.137 1.91594ZM31.5781 40.7402C31.0499 39.1145 28.7501 39.1145 28.2219 40.7402L22.3731 58.7409C22.1369 59.4679 21.4594 59.9601 20.6949 59.9601H1.76788C0.0585698 59.9601 -0.652126 62.1474 0.730733 63.1521L16.0431 74.2772C16.6615 74.7265 16.9203 75.5229 16.684 76.2499L10.8353 94.2506C10.3071 95.8763 12.1677 97.2281 13.5505 96.2234L28.8629 85.0984C29.4813 84.649 30.3187 84.649 30.9371 85.0984L46.2495 96.2234C47.6323 97.2281 49.4929 95.8763 48.9647 94.2506L43.116 76.2499C42.8797 75.5229 43.1385 74.7265 43.7569 74.2772L59.0693 63.1521C60.4521 62.1474 59.7414 59.9601 58.0321 59.9601H39.1051C38.3406 59.9601 37.6631 59.4679 37.4269 58.7409L31.5781 40.7402ZM267.422 40.7402C267.95 39.1145 270.25 39.1145 270.778 40.7402L276.627 58.7409C276.863 59.4679 277.54 59.9601 278.305 59.9601H297.232C298.941 59.9601 299.652 62.1474 298.269 63.1521L282.957 74.2772C282.338 74.7265 282.08 75.5229 282.316 76.2499L288.165 94.2506C288.693 95.8763 286.832 97.2281 285.449 96.2234L270.137 85.0984C269.519 84.649 268.681 84.649 268.063 85.0984L252.75 96.2234C251.368 97.2281 249.507 95.8763 250.035 94.2506L255.884 76.2499C256.12 75.5229 255.861 74.7265 255.243 74.2772L239.931 63.1521C238.548 62.1474 239.258 59.9601 240.968 59.9601H259.895C260.659 59.9601 261.337 59.4679 261.573 58.7409L267.422 40.7402Z" fill="#3A3F44"/>
<path d="M146.863 1.91594L153.247 3.99014L153.247 3.99013L146.863 1.91594ZM152.137 1.91594L145.754 3.99013L145.754 3.99014L152.137 1.91594ZM137.672 30.2028L144.056 32.277L144.056 32.277L137.672 30.2028ZM103.663 37.1347L99.7176 42.565L99.7176 42.565L103.663 37.1347ZM109.34 41.2594V47.9716H129.998L113.285 35.8291L109.34 41.2594ZM91.7937 39.6047L85.41 41.6789L85.41 41.6789L91.7937 39.6047ZM83.856 15.1752L77.4723 17.2494L77.4723 17.2494L83.856 15.1752ZM79.3011 15.1752L72.9174 13.101L72.9174 13.101L79.3011 15.1752ZM71.3635 39.6047L77.7472 41.6789L77.7472 41.6789L71.3635 39.6047ZM41.9917 45.5914L38.0463 51.0217L38.0463 51.0217L41.9917 45.5914ZM62.7727 60.6897L58.8274 66.12L58.8274 66.12L62.7727 60.6897ZM63.6426 63.367L70.0264 65.4412L70.0264 65.4412L63.6426 63.367ZM55.705 87.7965L62.0887 89.8707L62.0887 89.8707L55.705 87.7965ZM59.39 90.4739L63.3354 95.9042L63.3354 95.9042L59.39 90.4739ZM80.171 75.3756L84.1164 80.8059L84.1164 80.8059L80.171 75.3756ZM82.9861 75.3756L79.0407 80.8059L79.0408 80.8059L82.9861 75.3756ZM103.767 90.4739L99.8218 95.9042L99.8218 95.9042L103.767 90.4739ZM107.452 87.7965L101.068 89.8707L101.068 89.8707L107.452 87.7965ZM99.5145 63.367L93.1308 65.4412L93.1308 65.4412L99.5145 63.367ZM100.384 60.6897L104.33 66.12L104.33 66.12L100.384 60.6897ZM118.234 47.7212L122.179 42.2909L118.234 39.4244L114.289 42.2909L118.234 47.7212ZM127.725 54.6169L131.671 49.1866L131.671 49.1866L127.725 54.6169ZM128.732 57.717L122.349 55.6427L122.349 55.6428L128.732 57.717ZM119.541 86.0038L125.925 88.078L125.925 88.078L119.541 86.0038ZM123.808 89.1039L119.863 83.6736L119.863 83.6736L123.808 89.1039ZM147.871 71.6217L143.925 66.1913L143.925 66.1914L147.871 71.6217ZM151.13 71.6217L155.076 66.1914L155.075 66.1913L151.13 71.6217ZM175.192 89.1039L171.247 94.5342L171.247 94.5342L175.192 89.1039ZM179.459 86.0038L185.843 83.9297L185.843 83.9296L179.459 86.0038ZM170.268 57.717L163.885 59.7912L163.885 59.7912L170.268 57.717ZM171.276 54.6169L167.33 49.1866L167.33 49.1866L171.276 54.6169ZM180.345 48.0277L184.29 42.5973L180.345 39.7309L176.4 42.5973L180.345 48.0277ZM197.773 60.6897L201.718 55.2594L201.718 55.2594L197.773 60.6897ZM198.643 63.367L192.259 61.2928L192.259 61.2928L198.643 63.367ZM190.705 87.7965L184.321 85.7223L184.321 85.7224L190.705 87.7965ZM194.39 90.4739L198.335 95.9042L198.335 95.9042L194.39 90.4739ZM215.171 75.3756L219.116 80.8059L219.116 80.8059L215.171 75.3756ZM217.986 75.3756L214.041 80.8059L214.041 80.8059L217.986 75.3756ZM238.767 90.4739L234.822 95.9042L234.822 95.9042L238.767 90.4739ZM242.452 87.7965L248.836 85.7224L248.836 85.7223L242.452 87.7965ZM234.515 63.367L240.898 61.2928L240.898 61.2928L234.515 63.367ZM235.384 60.6897L239.33 66.12L239.33 66.12L235.384 60.6897ZM256.165 45.5914L252.22 40.1611L252.22 40.1611L256.165 45.5914ZM226.794 39.6047L220.41 41.6789L220.41 41.6789L226.794 39.6047ZM218.856 15.1752L212.472 17.2494L212.472 17.2494L218.856 15.1752ZM214.301 15.1752L220.685 17.2494L220.685 17.2494L214.301 15.1752ZM206.363 39.6047L212.747 41.6789L212.747 41.6789L206.363 39.6047ZM189.661 41.2594L185.715 35.8291L169.002 47.9716H189.661V41.2594ZM195.338 37.1347L199.283 42.565L199.283 42.565L195.338 37.1347ZM161.328 30.2028L167.712 28.1286L167.712 28.1286L161.328 30.2028ZM28.2219 40.7402L34.6056 42.8144L34.6056 42.8144L28.2219 40.7402ZM31.5781 40.7402L37.9619 38.666L37.9619 38.666L31.5781 40.7402ZM22.3731 58.7409L15.9894 56.6667L15.9893 56.6667L22.3731 58.7409ZM0.730733 63.1521L4.67609 57.7218L4.67609 57.7218L0.730733 63.1521ZM16.0431 74.2772L12.0977 79.7075L12.0977 79.7075L16.0431 74.2772ZM16.684 76.2499L23.0678 78.3241L23.0678 78.3241L16.684 76.2499ZM10.8353 94.2506L17.219 96.3248L17.219 96.3248L10.8353 94.2506ZM13.5505 96.2234L9.60518 90.7931L9.60517 90.7931L13.5505 96.2234ZM28.8629 85.0984L32.8082 90.5287L32.8082 90.5287L28.8629 85.0984ZM30.9371 85.0984L26.9918 90.5287L26.9918 90.5287L30.9371 85.0984ZM46.2495 96.2234L50.1948 90.7931L50.1948 90.7931L46.2495 96.2234ZM48.9647 94.2506L42.581 96.3248L42.581 96.3248L48.9647 94.2506ZM43.116 76.2499L49.4997 74.1757L49.4997 74.1757L43.116 76.2499ZM43.7569 74.2772L47.7023 79.7075L47.7023 79.7075L43.7569 74.2772ZM59.0693 63.1521L63.0146 68.5824L63.0146 68.5824L59.0693 63.1521ZM37.4269 58.7409L43.8107 56.6667L43.8106 56.6667L37.4269 58.7409ZM270.778 40.7402L264.394 42.8143L264.394 42.8144L270.778 40.7402ZM267.422 40.7402L273.805 42.8144L273.805 42.8143L267.422 40.7402ZM276.627 58.7409L270.243 60.8151L270.243 60.8152L276.627 58.7409ZM298.269 63.1521L302.214 68.5824L302.215 68.5824L298.269 63.1521ZM282.957 74.2772L286.902 79.7075L286.902 79.7075L282.957 74.2772ZM282.316 76.2499L288.7 74.1757L288.7 74.1756L282.316 76.2499ZM288.165 94.2506L294.548 92.1765L294.548 92.1764L288.165 94.2506ZM285.449 96.2234L281.504 101.654L281.504 101.654L285.449 96.2234ZM270.137 85.0984L274.082 79.668L274.082 79.668L270.137 85.0984ZM268.063 85.0984L264.117 79.668L264.117 79.668L268.063 85.0984ZM252.75 96.2234L248.805 90.7931L248.805 90.7931L252.75 96.2234ZM250.035 94.2506L243.651 92.1764L243.651 92.1765L250.035 94.2506ZM255.884 76.2499L249.5 74.1757L249.5 74.1757L255.884 76.2499ZM255.243 74.2772L251.298 79.7075L251.298 79.7075L255.243 74.2772ZM239.931 63.1521L243.876 57.7218L243.876 57.7218L239.931 63.1521ZM261.573 58.7409L255.189 56.6667L255.189 56.6668L261.573 58.7409ZM153.247 3.99013C152.068 7.61962 146.933 7.61962 145.754 3.99013L158.521 -0.158247C155.682 -8.89691 143.319 -8.89691 140.48 -0.158247L153.247 3.99013ZM144.056 32.277L153.247 3.99014L140.48 -0.158256L131.289 28.1286L144.056 32.277ZM135.035 38.831C139.144 38.831 142.786 36.185 144.056 32.277L131.289 28.1285C131.816 26.5055 133.329 25.4065 135.035 25.4065V38.831ZM105.293 38.831H135.035V25.4065H105.293V38.831ZM107.608 31.7044C110.696 33.9475 109.109 38.831 105.293 38.831V25.4065C96.1044 25.4065 92.2841 37.1643 99.7176 42.565L107.608 31.7044ZM113.285 35.8291L107.608 31.7044L99.7176 42.565L105.395 46.6897L113.285 35.8291ZM109.34 34.5472H94.0711V47.9716H109.34V34.5472ZM94.0711 34.5472C95.9417 34.5472 97.5994 35.7516 98.1774 37.5305L85.41 41.6789C86.6291 45.4312 90.1258 47.9716 94.0711 47.9716V34.5472ZM98.1774 37.5305L90.2398 13.101L77.4723 17.2494L85.41 41.6789L98.1774 37.5305ZM90.2398 13.101C87.5136 4.71065 75.6435 4.71072 72.9174 13.101L85.6848 17.2494C84.3924 21.2272 78.7648 21.2272 77.4723 17.2494L90.2398 13.101ZM72.9174 13.101L64.9797 37.5305L77.7472 41.6789L85.6848 17.2494L72.9174 13.101ZM64.9797 37.5305C65.5578 35.7516 67.2155 34.5472 69.086 34.5472V47.9716C73.0314 47.9716 76.528 45.4312 77.7472 41.6789L64.9797 37.5305ZM69.086 34.5472H43.3993V47.9716H69.086V34.5472ZM43.3993 34.5472C34.5772 34.5472 30.9091 45.8362 38.0463 51.0217L45.9371 40.1611C49.3208 42.6195 47.5818 47.9716 43.3993 47.9716V34.5472ZM38.0463 51.0217L58.8274 66.12L66.7181 55.2594L45.9371 40.1611L38.0463 51.0217ZM58.8274 66.12C57.3141 65.0206 56.6809 63.0717 57.2589 61.2928L70.0264 65.4412C71.2455 61.689 69.9099 57.5784 66.7181 55.2594L58.8274 66.12ZM57.2589 61.2928L49.3213 85.7223L62.0887 89.8707L70.0264 65.4412L57.2589 61.2928ZM49.3213 85.7223C46.5951 94.1127 56.1982 101.09 63.3354 95.9042L55.4447 85.0435C58.8284 82.5851 63.3812 85.8929 62.0887 89.8707L49.3213 85.7223ZM63.3354 95.9042L84.1164 80.8059L76.2257 69.9453L55.4447 85.0435L63.3354 95.9042ZM84.1164 80.8059C82.6031 81.9053 80.554 81.9053 79.0407 80.8059L86.9315 69.9453C83.7396 67.6262 79.4175 67.6262 76.2256 69.9453L84.1164 80.8059ZM79.0408 80.8059L99.8218 95.9042L107.712 85.0435L86.9315 69.9453L79.0408 80.8059ZM99.8218 95.9042C106.959 101.09 116.562 94.1127 113.836 85.7223L101.068 89.8707C99.7759 85.8929 104.329 82.5851 107.712 85.0435L99.8218 95.9042ZM113.836 85.7223L105.898 61.2928L93.1308 65.4412L101.068 89.8707L113.836 85.7223ZM105.898 61.2928C106.476 63.0717 105.843 65.0206 104.33 66.12L96.4391 55.2594C93.2472 57.5784 91.9116 61.689 93.1308 65.4412L105.898 61.2928ZM104.33 66.12L122.179 53.1515L114.289 42.2909L96.4391 55.2594L104.33 66.12ZM131.671 49.1866L122.179 42.2909L114.289 53.1515L123.78 60.0473L131.671 49.1866ZM135.116 59.7913C136.386 55.8831 134.995 51.6019 131.671 49.1866L123.78 60.0473C122.399 59.0441 121.821 57.266 122.349 55.6427L135.116 59.7913ZM125.925 88.078L135.116 59.7912L122.349 55.6428L113.158 83.9296L125.925 88.078ZM119.863 83.6736C122.95 81.4305 127.105 84.4485 125.925 88.078L113.158 83.9296C110.318 92.6683 120.32 99.935 127.754 94.5342L119.863 83.6736ZM143.925 66.1914L119.863 83.6736L127.754 94.5342L151.816 77.052L143.925 66.1914ZM155.075 66.1913C151.751 63.7761 147.25 63.7761 143.925 66.1913L151.816 77.052C150.435 78.0552 148.566 78.0552 147.185 77.052L155.075 66.1913ZM179.138 83.6736L155.076 66.1914L147.185 77.052L171.247 94.5342L179.138 83.6736ZM173.076 88.078C171.896 84.4485 176.05 81.4305 179.138 83.6736L171.247 94.5342C178.681 99.935 188.682 92.6683 185.843 83.9297L173.076 88.078ZM163.885 59.7912L173.076 88.078L185.843 83.9296L176.652 55.6428L163.885 59.7912ZM167.33 49.1866C164.006 51.602 162.615 55.8832 163.885 59.7912L176.652 55.6428C177.179 57.2659 176.602 59.0441 175.221 60.0473L167.33 49.1866ZM176.4 42.5973L167.33 49.1866L175.221 60.0473L184.29 53.458L176.4 42.5973ZM176.4 53.458L193.827 66.12L201.718 55.2594L184.29 42.5973L176.4 53.458ZM193.827 66.12C192.314 65.0205 191.681 63.0717 192.259 61.2928L205.026 65.4412C206.246 61.689 204.91 57.5784 201.718 55.2594L193.827 66.12ZM192.259 61.2928L184.321 85.7223L197.089 89.8707L205.026 65.4412L192.259 61.2928ZM184.321 85.7224C181.595 94.1127 191.198 101.09 198.335 95.9042L190.445 85.0435C193.828 82.5851 198.381 85.8929 197.089 89.8707L184.321 85.7224ZM198.335 95.9042L219.116 80.8059L211.226 69.9453L190.445 85.0435L198.335 95.9042ZM219.116 80.8059C217.603 81.9053 215.554 81.9053 214.041 80.8059L221.931 69.9453C218.74 67.6262 214.418 67.6262 211.226 69.9453L219.116 80.8059ZM214.041 80.8059L234.822 95.9042L242.712 85.0435L221.931 69.9453L214.041 80.8059ZM234.822 95.9042C241.959 101.09 251.562 94.1127 248.836 85.7224L236.068 89.8707C234.776 85.8929 239.329 82.5851 242.712 85.0435L234.822 95.9042ZM248.836 85.7223L240.898 61.2928L228.131 65.4412L236.068 89.8707L248.836 85.7223ZM240.898 61.2928C241.476 63.0717 240.843 65.0206 239.33 66.12L231.439 55.2593C228.247 57.5784 226.912 61.689 228.131 65.4412L240.898 61.2928ZM239.33 66.12L260.111 51.0217L252.22 40.1611L231.439 55.2594L239.33 66.12ZM260.111 51.0217C267.248 45.8362 263.58 34.5472 254.758 34.5472V47.9716C250.575 47.9716 248.836 42.6196 252.22 40.1611L260.111 51.0217ZM254.758 34.5472H229.071V47.9716H254.758V34.5472ZM229.071 34.5472C230.942 34.5472 232.599 35.7516 233.177 37.5305L220.41 41.6789C221.629 45.4312 225.126 47.9716 229.071 47.9716V34.5472ZM233.177 37.5305L225.24 13.101L212.472 17.2494L220.41 41.6789L233.177 37.5305ZM225.24 13.101C222.514 4.71068 210.644 4.71068 207.917 13.101L220.685 17.2494C219.392 21.2272 213.765 21.2272 212.472 17.2494L225.24 13.101ZM207.917 13.101L199.98 37.5305L212.747 41.6789L220.685 17.2494L207.917 13.101ZM199.98 37.5305C200.558 35.7516 202.215 34.5472 204.086 34.5472V47.9716C208.031 47.9716 211.528 45.4312 212.747 41.6789L199.98 37.5305ZM204.086 34.5472H189.661V47.9716H204.086V34.5472ZM191.392 31.7044L185.715 35.8291L193.606 46.6897L199.283 42.565L191.392 31.7044ZM193.708 38.831C189.892 38.831 188.305 33.9475 191.392 31.7044L199.283 42.565C206.717 37.1643 202.896 25.4065 193.708 25.4065V38.831ZM163.965 38.831H193.708V25.4065H163.965V38.831ZM154.945 32.277C156.214 36.185 159.856 38.831 163.965 38.831V25.4065C165.672 25.4065 167.185 26.5054 167.712 28.1286L154.945 32.277ZM145.754 3.99014L154.945 32.277L167.712 28.1286L158.521 -0.158259L145.754 3.99014ZM34.6056 42.8144C33.1245 47.3728 26.6755 47.3728 25.1944 42.8144L37.9619 38.666C35.4243 30.8563 24.3757 30.8562 21.8381 38.666L34.6056 42.8144ZM28.7568 60.8151L34.6056 42.8144L21.8381 38.666L15.9894 56.6667L28.7568 60.8151ZM20.6949 66.6724C24.3673 66.6724 27.622 64.3077 28.7568 60.8151L15.9893 56.6667C16.6517 54.6281 18.5515 53.2479 20.6949 53.2479V66.6724ZM1.76788 66.6724H20.6949V53.2479H1.76788V66.6724ZM4.67609 57.7218C8.55372 60.539 6.56087 66.6724 1.76788 66.6724V53.2479C-6.44373 53.2479 -9.85797 63.7558 -3.21462 68.5824L4.67609 57.7218ZM19.9884 68.8468L4.67609 57.7218L-3.21463 68.5824L12.0977 79.7075L19.9884 68.8468ZM23.0678 78.3241C24.2026 74.8315 22.9594 71.0054 19.9884 68.8468L12.0977 79.7075C10.3636 78.4476 9.63795 76.2143 10.3003 74.1757L23.0678 78.3241ZM17.219 96.3248L23.0678 78.3241L10.3003 74.1757L4.45153 92.1764L17.219 96.3248ZM9.60517 90.7931C13.4828 87.9758 18.7001 91.7664 17.219 96.3248L4.45153 92.1764C1.91398 99.9862 10.8526 106.48 17.4959 101.654L9.60517 90.7931ZM24.9175 79.668L9.60518 90.7931L17.4959 101.654L32.8082 90.5287L24.9175 79.668ZM34.8825 79.668C31.9115 77.5095 27.8885 77.5095 24.9175 79.668L32.8082 90.5287C31.0741 91.7886 28.7259 91.7886 26.9918 90.5287L34.8825 79.668ZM50.1948 90.7931L34.8825 79.668L26.9918 90.5287L42.3041 101.654L50.1948 90.7931ZM42.581 96.3248C41.0999 91.7664 46.3173 87.9759 50.1948 90.7931L42.3041 101.654C48.9474 106.48 57.886 99.9862 55.3485 92.1764L42.581 96.3248ZM36.7322 78.3241L42.581 96.3248L55.3485 92.1764L49.4997 74.1757L36.7322 78.3241ZM39.8116 68.8468C36.8406 71.0054 35.5974 74.8315 36.7322 78.3241L49.4997 74.1757C50.1621 76.2143 49.4364 78.4476 47.7023 79.7075L39.8116 68.8468ZM55.1239 57.7218L39.8116 68.8468L47.7023 79.7075L63.0146 68.5824L55.1239 57.7218ZM58.0321 66.6724C53.2391 66.6724 51.2463 60.539 55.1239 57.7218L63.0146 68.5824C69.6579 63.7558 66.2438 53.2479 58.0321 53.2479V66.6724ZM39.1051 66.6724H58.0321V53.2479H39.1051V66.6724ZM31.0432 60.815C32.178 64.3077 35.4327 66.6724 39.1051 66.6724V53.2479C41.2485 53.2479 43.1483 54.6281 43.8107 56.6667L31.0432 60.815ZM25.1944 42.8144L31.0432 60.8151L43.8106 56.6667L37.9619 38.666L25.1944 42.8144ZM277.162 38.666C274.624 30.8562 263.576 30.8562 261.038 38.666L273.805 42.8143C272.324 47.3728 265.875 47.3728 264.394 42.8143L277.162 38.666ZM283.01 56.6667L277.162 38.666L264.394 42.8144L270.243 60.8151L283.01 56.6667ZM278.305 53.2479C280.448 53.2479 282.348 54.6281 283.01 56.6665L270.243 60.8152C271.378 64.3076 274.633 66.6724 278.305 66.6724V53.2479ZM297.232 53.2479H278.305V66.6724H297.232V53.2479ZM302.215 68.5824C308.858 63.7558 305.444 53.2479 297.232 53.2479V66.6724C292.439 66.6724 290.446 60.539 294.324 57.7218L302.215 68.5824ZM286.902 79.7075L302.214 68.5824L294.324 57.7218L279.011 68.8468L286.902 79.7075ZM288.7 74.1756C289.362 76.2144 288.636 78.4476 286.902 79.7075L279.011 68.8468C276.041 71.0053 274.797 74.8315 275.932 78.3242L288.7 74.1756ZM294.548 92.1764L288.7 74.1757L275.932 78.3241L281.781 96.3248L294.548 92.1764ZM281.504 101.654C288.147 106.48 297.086 99.9863 294.548 92.1765L281.781 96.3248C280.3 91.7663 285.517 87.9759 289.395 90.7931L281.504 101.654ZM266.192 90.5287L281.504 101.654L289.395 90.7931L274.082 79.668L266.192 90.5287ZM272.008 90.5287C270.274 91.7886 267.926 91.7886 266.192 90.5287L274.082 79.668C271.111 77.5095 267.088 77.5095 264.117 79.668L272.008 90.5287ZM256.696 101.654L272.008 90.5287L264.117 79.668L248.805 90.7931L256.696 101.654ZM243.651 92.1765C241.114 99.9862 250.052 106.48 256.696 101.654L248.805 90.7931C252.683 87.9758 257.9 91.7664 256.419 96.3248L243.651 92.1765ZM249.5 74.1757L243.651 92.1764L256.419 96.3248L262.268 78.3241L249.5 74.1757ZM251.298 79.7075C249.563 78.4476 248.838 76.2143 249.5 74.1757L262.268 78.3241C263.402 74.8315 262.159 71.0054 259.188 68.8468L251.298 79.7075ZM235.985 68.5824L251.298 79.7075L259.188 68.8468L243.876 57.7218L235.985 68.5824ZM240.968 53.2479C232.756 53.2479 229.342 63.7557 235.985 68.5824L243.876 57.7218C247.754 60.5391 245.761 66.6724 240.968 66.6724V53.2479ZM259.895 53.2479H240.968V66.6724H259.895V53.2479ZM255.189 56.6668C255.852 54.628 257.751 53.2479 259.895 53.2479V66.6724C263.567 66.6724 266.822 64.3077 267.957 60.815L255.189 56.6668ZM261.038 38.666L255.189 56.6667L267.957 60.8151L273.805 42.8144L261.038 38.666Z" fill="#D1A300" mask="url(#path-1-inside-1)"/>
</svg>
