<svg width="209" height="121" viewBox="0 0 209 121" fill="none" xmlns="http://www.w3.org/2000/svg">
<rect x="24.6623" y="39.595" width="33.0828" height="33.0828" rx="9.28101" fill="#3A3F44" stroke="#0084DD" stroke-width="7.43797"/>
<mask id="path-2-inside-1" fill="white">
<path fill-rule="evenodd" clip-rule="evenodd" d="M0 120.44H82.4068C80.5094 102.371 65.2267 88.2881 46.6549 88.2881H35.7519C17.1801 88.2881 1.89747 102.371 0 120.44Z"/>
</mask>
<path fill-rule="evenodd" clip-rule="evenodd" d="M0 120.44H82.4068C80.5094 102.371 65.2267 88.2881 46.6549 88.2881H35.7519C17.1801 88.2881 1.89747 102.371 0 120.44Z" fill="#3A3F44"/>
<path d="M0 120.44L-7.3973 119.663L-8.25994 127.878H0V120.44ZM82.4068 120.44V127.878H90.6668L89.8041 119.663L82.4068 120.44ZM0 127.878H82.4068V113.002H0V127.878ZM46.6549 95.7261C61.3795 95.7261 73.5055 106.894 75.0095 121.217L89.8041 119.663C87.5132 97.8475 69.0739 80.8501 46.6549 80.8501V95.7261ZM35.7519 95.7261H46.6549V80.8501H35.7519V95.7261ZM7.3973 121.217C8.90135 106.894 21.0273 95.7261 35.7519 95.7261V80.8501C13.3329 80.8501 -5.10641 97.8475 -7.3973 119.663L7.3973 121.217Z" fill="#0084DD" mask="url(#path-2-inside-1)"/>
<rect x="70.1692" y="21.135" width="41.9277" height="41.9277" rx="11.7768" fill="#3A3F44" stroke="#D1A300" stroke-width="7.43797"/>
<mask id="path-5-inside-2" fill="white">
<path fill-rule="evenodd" clip-rule="evenodd" d="M76.6436 81.2686C56.7888 81.2686 40.6934 97.364 40.6934 117.219V120.44H141.571V117.219C141.571 97.364 125.476 81.2686 105.621 81.2686H76.6436Z"/>
</mask>
<path fill-rule="evenodd" clip-rule="evenodd" d="M76.6436 81.2686C56.7888 81.2686 40.6934 97.364 40.6934 117.219V120.44H141.571V117.219C141.571 97.364 125.476 81.2686 105.621 81.2686H76.6436Z" fill="#3A3F44"/>
<path d="M40.6934 120.44H33.2554V127.878H40.6934V120.44ZM141.571 120.44V127.878H149.009V120.44H141.571ZM48.1313 117.219C48.1313 101.472 60.8967 88.7065 76.6436 88.7065V73.8306C52.6809 73.8306 33.2554 93.2561 33.2554 117.219H48.1313ZM48.1313 120.44V117.219H33.2554V120.44H48.1313ZM40.6934 127.878H141.571V113.002H40.6934V127.878ZM134.133 117.219V120.44H149.009V117.219H134.133ZM105.621 88.7065C121.368 88.7065 134.133 101.472 134.133 117.219H149.009C149.009 93.2561 129.583 73.8306 105.621 73.8306V88.7065ZM76.6436 88.7065H105.621V73.8306H76.6436V88.7065Z" fill="#D1A300" mask="url(#path-5-inside-2)"/>
<rect x="124.204" y="3.71899" width="50.2735" height="50.2735" rx="11.7768" fill="#3A3F44" stroke="#D10000" stroke-width="7.43797"/>
<mask id="path-8-inside-3" fill="white">
<path fill-rule="evenodd" clip-rule="evenodd" d="M126.325 74.6484C106.47 74.6484 90.375 90.7439 90.375 110.599V120.441H208.307V110.599C208.307 90.7439 192.212 74.6484 172.357 74.6484H126.325Z"/>
</mask>
<path fill-rule="evenodd" clip-rule="evenodd" d="M126.325 74.6484C106.47 74.6484 90.375 90.7439 90.375 110.599V120.441H208.307V110.599C208.307 90.7439 192.212 74.6484 172.357 74.6484H126.325Z" fill="#3A3F44"/>
<path d="M90.375 120.441H82.937V127.879H90.375V120.441ZM208.307 120.441V127.879H215.745V120.441H208.307ZM97.813 110.599C97.813 94.8518 110.578 82.0864 126.325 82.0864V67.2105C102.363 67.2105 82.937 86.6361 82.937 110.599H97.813ZM97.813 120.441V110.599H82.937V120.441H97.813ZM90.375 127.879H208.307V113.003H90.375V127.879ZM200.869 110.599V120.441H215.745V110.599H200.869ZM172.357 82.0864C188.104 82.0864 200.869 94.8518 200.869 110.599H215.745C215.745 86.636 196.32 67.2105 172.357 67.2105V82.0864ZM126.325 82.0864H172.357V67.2105H126.325V82.0864Z" fill="#D10000" mask="url(#path-8-inside-3)"/>
</svg>
