<svg width="40" height="40" viewBox="0 0 40 40" fill="none" xmlns="http://www.w3.org/2000/svg">
<rect width="40" height="40" rx="10" fill="#0084DD"/>
<path fill-rule="evenodd" clip-rule="evenodd" d="M31.3288 17.0693C31.398 17.0693 31.4672 17.0709 31.5363 17.074C31.391 16.2852 31.148 15.512 30.8108 14.7696C30.2256 13.481 29.3678 12.3102 28.2864 11.324C27.2051 10.3378 25.9213 9.5555 24.5084 9.02176C23.0955 8.48803 21.5812 8.21332 20.0519 8.21332C18.5226 8.21332 17.0083 8.48803 15.5954 9.02176C14.1825 9.5555 12.8988 10.3378 11.8174 11.324C10.736 12.3102 9.87821 13.481 9.29298 14.7696C8.95627 15.5109 8.71358 16.2829 8.56817 17.0705C8.6025 17.0697 8.63687 17.0693 8.67128 17.0693V21.7406V26.4119C7.43238 26.4119 6.24422 25.9197 5.36819 25.0437C4.49215 24.1677 4 22.9795 4 21.7406C4 20.5017 4.49215 19.3136 5.36819 18.4375C5.88322 17.9225 6.50613 17.5401 7.18382 17.3125C7.3304 16.2813 7.62568 15.27 8.06386 14.3053C8.71595 12.8695 9.67174 11.565 10.8767 10.4661C12.0816 9.36719 13.512 8.49551 15.0863 7.9008C16.6606 7.30609 18.3479 7 20.0519 7C21.7559 7 23.4432 7.30609 25.0175 7.9008C26.5918 8.49551 28.0223 9.36719 29.2272 10.4661C30.4321 11.565 31.3879 12.8695 32.04 14.3053C32.4835 15.2819 32.7807 16.3063 32.9254 17.3507C32.9895 17.374 33.0532 17.3987 33.1164 17.4249C33.6831 17.6597 34.1981 18.0038 34.6318 18.4375C35.0656 18.8713 35.4097 19.3862 35.6445 19.953C35.8792 20.5197 36 21.1272 36 21.7406C36 22.3541 35.8792 22.9615 35.6445 23.5282C35.4097 24.095 35.0656 24.6099 34.6318 25.0437C34.1981 25.4775 33.6831 25.8216 33.1164 26.0563C32.8803 26.1541 32.6373 26.2321 32.3896 26.2898C31.2834 31.0267 27.9801 33.3876 24.0858 34.1727C23.9776 34.9854 23.2817 35.6123 22.4395 35.6123C21.5222 35.6123 20.7786 34.8687 20.7786 33.9514C20.7786 33.0341 21.5222 32.2905 22.4395 32.2905C23.1726 32.2905 23.7948 32.7655 24.0151 33.4246C29.063 32.5593 30.8263 28.3619 31.3287 25.2139L31.3288 21.7406V17.0693ZM15.3807 12.1904C12.6862 12.1904 10.5018 14.3748 10.5018 17.0693V26.4119C10.5018 29.1064 12.6862 31.2908 15.3807 31.2908H24.6194C27.314 31.2908 29.4983 29.1064 29.4983 26.4119V17.0693C29.4983 14.3748 27.314 12.1904 24.6194 12.1904H15.3807ZM16.7138 24.4056C16.5554 24.0114 16.1074 23.8202 15.7132 23.9786C15.319 24.137 15.1278 24.585 15.2862 24.9792C16.199 27.251 17.9511 28.5385 19.8462 28.5385C21.7413 28.5385 23.4933 27.251 24.4061 24.9792C24.5645 24.585 24.3733 24.137 23.9791 23.9786C23.5849 23.8202 23.1369 24.0114 22.9785 24.4056C22.243 26.2363 20.973 27.0001 19.8462 27.0001C18.7193 27.0001 17.4493 26.2363 16.7138 24.4056ZM17 16.65C17 15.7387 17.3806 15 17.85 15C18.3194 15 18.7 15.7387 18.7 16.65C18.7 17.5613 18.3194 18.3 17.85 18.3C17.3806 18.3 17 17.5613 17 16.65ZM21.85 15C21.3806 15 21 15.7387 21 16.65C21 17.5613 21.3806 18.3 21.85 18.3C22.3194 18.3 22.7 17.5613 22.7 16.65C22.7 15.7387 22.3194 15 21.85 15Z" fill="white"/>
</svg>
