<svg width="40" height="40" viewBox="0 0 40 40" fill="none" xmlns="http://www.w3.org/2000/svg">
<rect width="40" height="40" rx="10" fill="#151515"/>
<path fill-rule="evenodd" clip-rule="evenodd" d="M27.4888 11.0991C26.4829 10.2905 25.6406 8.83105 25.4563 7.57715L25.3809 7.06299L23.5278 7.03125L21.6748 7L21.6433 15.6602L21.6121 24.3198L21.3049 24.9756C20.7043 26.2568 19.9055 26.9966 18.6209 27.4604C17.6453 27.8135 16.2871 27.7598 15.3835 27.3325C13.1909 26.2964 12.1565 23.6118 13.1301 21.4849C13.9185 19.7627 15.8669 18.6211 17.6399 18.8428L18.2407 18.9175V17.7212C18.2407 17.0635 18.2075 16.209 18.1672 15.8228L18.0938 15.1201H17.0427C12.773 15.1201 9.26782 18.4658 9.01636 22.7812C8.93018 24.2598 9.18067 25.4785 9.85938 26.8838C10.3064 27.8086 10.5364 28.1187 11.4819 29.0688C12.3721 29.9639 12.7507 30.2563 13.4546 30.5923C15.9163 31.7666 18.4714 31.7646 20.8691 30.5869C21.7842 30.1377 22.1182 29.8906 22.9929 29.0156C23.8298 28.1782 24.1238 27.7891 24.5107 27.0059C24.7449 26.5317 24.9146 26.1958 25.0386 25.8433C25.3738 24.8916 25.3748 23.8223 25.4109 19.5986C25.4353 16.7505 25.4905 14.4365 25.5337 14.4561C25.5769 14.4761 26.052 14.71 26.5896 14.9766C27.7432 15.5479 29.1001 15.9199 30.0303 15.9199H30.6978V14.103V12.2861L29.9263 12.1538C29.0071 11.9956 28.1348 11.6182 27.4888 11.0991Z" fill="#00F5FA"/>
<path fill-rule="evenodd" clip-rule="evenodd" d="M28.5886 12.3987C27.5827 11.5904 26.7406 10.1309 26.5562 8.87683L26.4807 8.36255L24.6276 8.33112L22.7746 8.2998L22.7432 16.9597L22.7119 25.6197L22.4047 26.2751C21.8042 27.5565 21.0055 28.296 19.7207 28.7604C18.745 29.1129 17.387 29.0592 16.4833 28.6323C14.2908 27.5963 13.2562 24.9113 14.2299 22.7846C15.0184 21.0623 16.9667 19.9208 18.7396 20.1424L19.3404 20.2174V19.0211C19.3404 18.363 19.3074 17.5085 19.2671 17.1222L19.1936 16.4197H18.1425C13.8728 16.4197 10.3678 19.7654 10.1162 24.0811C10.03 25.5596 10.2806 26.7783 10.9593 28.1833C11.4063 29.1085 11.6361 29.4182 12.5817 30.3687C13.4719 31.2637 13.8505 31.556 14.5544 31.8918C17.0162 33.0661 19.5713 33.0643 21.969 31.8867C22.884 31.4373 23.218 31.1901 24.0927 30.3151C24.9297 29.4779 25.2236 29.0887 25.6106 28.3054C25.8448 27.8313 26.0146 27.4951 26.1386 27.1428C26.4735 26.1912 26.4745 25.122 26.5107 20.8983C26.5352 18.0502 26.5904 15.736 26.6335 15.7559C26.6767 15.7757 27.1518 16.0099 27.6895 16.2761C28.843 16.8476 30.2 17.2197 31.1302 17.2197H31.7976V15.4029V13.586L31.0261 13.4533C30.107 13.2952 29.2345 12.9177 28.5886 12.3987Z" fill="#FD0002"/>
<path fill-rule="evenodd" clip-rule="evenodd" d="M30.6978 13.3872C29.9009 13.2031 29.157 12.8555 28.5886 12.3984C28.1443 12.0415 27.7319 11.5576 27.394 11.0205C26.6296 10.3687 25.9709 9.34814 25.6421 8.34814L24.6277 8.33105L22.7747 8.2998L22.7432 16.9595L22.7119 25.6196L22.4048 26.2749C21.8042 27.5566 21.0054 28.2959 19.7207 28.7603C18.7451 29.1128 17.387 29.0591 16.4834 28.6323C15.614 28.2217 14.9265 27.5513 14.4744 26.7593C12.9248 25.5 12.303 23.291 13.1301 21.4849C13.9185 19.7627 15.8669 18.6211 17.6399 18.8428L18.2405 18.9175V17.7212C18.2405 17.3101 18.2278 16.8223 18.2083 16.4199H18.1426C13.8728 16.4199 10.3677 19.7656 10.1162 24.0811C10.03 25.5596 10.2805 26.7783 10.9592 28.1836C11.1111 28.4976 11.2378 28.7407 11.376 28.9619C11.4104 28.9966 11.4456 29.0322 11.4819 29.0688C11.74 29.3281 11.9548 29.5371 12.1472 29.7109C12.6187 30.1372 12.9546 30.3535 13.4546 30.5918C15.9163 31.7661 18.4714 31.7646 20.8691 30.5869C21.7842 30.1377 22.1182 29.8901 22.9929 29.0151C23.8298 28.1782 24.1238 27.7891 24.5107 27.0054C24.7449 26.5312 24.9148 26.1953 25.0388 25.8428C25.3735 24.8916 25.3748 23.8223 25.4109 19.5986C25.4353 16.7505 25.4905 14.436 25.5337 14.4561L25.76 14.5664C25.9575 14.6636 26.262 14.814 26.5896 14.9766C27.7432 15.5479 29.1001 15.9199 30.0303 15.9199H30.6978V14.103V13.3872Z" fill="white"/>
</svg>
