<svg width="40" height="40" viewBox="0 0 40 40" fill="none" xmlns="http://www.w3.org/2000/svg">
<rect width="40" height="40" rx="10" fill="#1D9BF0"/>
<path d="M30.3601 15.1198C30.3759 15.343 30.3759 15.5661 30.3759 15.7913C30.3759 22.6527 25.0051 30.566 15.1842 30.566V30.5619C12.2831 30.566 9.44226 29.7578 7 28.2339C7.42185 28.2833 7.84581 28.308 8.27082 28.309C10.675 28.3111 13.0105 27.5265 14.9019 26.0818C12.6172 26.0397 10.6137 24.5909 9.9138 22.4758C10.7141 22.626 11.5388 22.5951 12.3243 22.3864C9.83345 21.8969 8.0414 19.7685 8.0414 17.2966C8.0414 17.274 8.0414 17.2524 8.0414 17.2308C8.78359 17.6328 9.6146 17.856 10.4646 17.8807C8.11858 16.3558 7.39541 13.3204 8.81214 10.9473C11.5229 14.1914 15.5225 16.1635 19.8161 16.3722C19.3858 14.5687 19.9736 12.6788 21.3607 11.411C23.5112 9.44502 26.8933 9.54579 28.9148 11.6362C30.1106 11.4069 31.2566 10.9802 32.3054 10.3756C31.9069 11.5776 31.0727 12.5986 29.9583 13.2474C31.0166 13.1261 32.0506 12.8505 33.0244 12.43C32.3075 13.4747 31.4047 14.3847 30.3601 15.1198Z" fill="white"/>
</svg>
