<svg width="218" height="124" viewBox="0 0 218 124" fill="none" xmlns="http://www.w3.org/2000/svg">
<rect x="149.357" y="11.6224" width="39.8803" height="39.8803" rx="12.3274" fill="#3A3F44" stroke="#0084DD" stroke-width="7.78574"/>
<mask id="path-2-inside-1" fill="white">
<path fill-rule="evenodd" clip-rule="evenodd" d="M158.226 69.3828C137.443 69.3828 120.595 86.2309 120.595 107.014V107.206H217.999V107.014C217.999 86.2308 201.151 69.3828 180.368 69.3828H158.226Z"/>
</mask>
<path fill-rule="evenodd" clip-rule="evenodd" d="M158.226 69.3828C137.443 69.3828 120.595 86.2309 120.595 107.014V107.206H217.999V107.014C217.999 86.2308 201.151 69.3828 180.368 69.3828H158.226Z" fill="#3A3F44"/>
<path d="M120.595 107.206H112.809V114.992H120.595V107.206ZM217.999 107.206V114.992H225.785V107.206H217.999ZM128.38 107.014C128.38 90.5308 141.743 77.1686 158.226 77.1686V61.5971C133.143 61.5971 112.809 81.9309 112.809 107.014H128.38ZM128.38 107.206V107.014H112.809V107.206H128.38ZM120.595 114.992H217.999V99.4203H120.595V114.992ZM210.214 107.014V107.206H225.785V107.014H210.214ZM180.368 77.1686C196.851 77.1686 210.214 90.5308 210.214 107.014H225.785C225.785 81.9309 205.451 61.5971 180.368 61.5971V77.1686ZM158.226 77.1686H180.368V61.5971H158.226V77.1686Z" fill="#0084DD" mask="url(#path-2-inside-1)"/>
<rect x="28.762" y="11.6224" width="39.8803" height="39.8803" rx="12.3274" fill="#3A3F44" stroke="#0084DD" stroke-width="7.78574"/>
<mask id="path-5-inside-2" fill="white">
<path fill-rule="evenodd" clip-rule="evenodd" d="M37.6311 69.3828C16.848 69.3828 0 86.2309 0 107.014V107.206H97.4046V107.014C97.4046 86.2308 80.5565 69.3828 59.7735 69.3828H37.6311Z"/>
</mask>
<path fill-rule="evenodd" clip-rule="evenodd" d="M37.6311 69.3828C16.848 69.3828 0 86.2309 0 107.014V107.206H97.4046V107.014C97.4046 86.2308 80.5565 69.3828 59.7735 69.3828H37.6311Z" fill="#3A3F44"/>
<path d="M0 107.206H-7.78574V114.992H0V107.206ZM97.4046 107.206V114.992H105.19V107.206H97.4046ZM7.78574 107.014C7.78574 90.5308 21.148 77.1686 37.6311 77.1686V61.5971C12.5481 61.5971 -7.78574 81.9309 -7.78574 107.014H7.78574ZM7.78574 107.206V107.014H-7.78574V107.206H7.78574ZM0 114.992H97.4046V99.4203H0V114.992ZM89.6188 107.014V107.206H105.19V107.014H89.6188ZM59.7735 77.1686C76.2566 77.1686 89.6188 90.5308 89.6188 107.014H105.19C105.19 81.9309 84.8565 61.5971 59.7735 61.5971V77.1686ZM37.6311 77.1686H59.7735V61.5971H37.6311V77.1686Z" fill="#0084DD" mask="url(#path-5-inside-2)"/>
<rect x="82.7444" y="3.89287" width="51.4816" height="51.4816" rx="12.3274" fill="#3A3F44" stroke="#0084DD" stroke-width="7.78574"/>
<mask id="path-8-inside-3" fill="white">
<path fill-rule="evenodd" clip-rule="evenodd" d="M85.5608 76.6602C64.7777 76.6602 47.9297 93.5082 47.9297 114.291V123.688H169.041V114.291C169.041 93.5082 152.193 76.6602 131.41 76.6602H85.5608Z"/>
</mask>
<path fill-rule="evenodd" clip-rule="evenodd" d="M85.5608 76.6602C64.7777 76.6602 47.9297 93.5082 47.9297 114.291V123.688H169.041V114.291C169.041 93.5082 152.193 76.6602 131.41 76.6602H85.5608Z" fill="#3A3F44"/>
<path d="M47.9297 123.688H40.1439V131.473H47.9297V123.688ZM169.041 123.688V131.473H176.827V123.688H169.041ZM55.7154 114.291C55.7154 97.8081 69.0777 84.4459 85.5608 84.4459V68.8744C60.4778 68.8744 40.1439 89.2083 40.1439 114.291H55.7154ZM55.7154 123.688V114.291H40.1439V123.688H55.7154ZM47.9297 131.473H169.041V115.902H47.9297V131.473ZM161.256 114.291V123.688H176.827V114.291H161.256ZM131.41 84.4459C147.893 84.4459 161.256 97.8081 161.256 114.291H176.827C176.827 89.2082 156.493 68.8744 131.41 68.8744V84.4459ZM85.5608 84.4459H131.41V68.8744H85.5608V84.4459Z" fill="#0084DD" mask="url(#path-8-inside-3)"/>
</svg>
